<?xml version="1.0" encoding="UTF-8" ?>
<!DOCTYPE svg PUBLIC "-//W3C//DTD SVG 1.1//EN" "http://www.w3.org/Graphics/SVG/1.1/DTD/svg11.dtd">
<svg viewBox="0 0 245 245" version="1.1" xmlns="http://www.w3.org/2000/svg">
<g fill="white">
	<path d=" M 3.88 0.00 L 240.85 0.00 C 242.79 0.59 244.20 2.04 245.00 3.88 L 245.00 240.92 C 244.35 242.81 242.95 244.22 241.13 245.00 L 4.08 245.00 C 2.19 244.36 0.78 242.94 0.00 241.13 L 0.00 4.15 C 0.61 2.22 2.03 0.77 3.88 0.00 M 88.27 51.47 C 80.60 45.83 71.48 42.55 62.08 41.32 C 57.04 52.88 52.18 64.69 49.99 77.16 L 49.46 77.08 L 49.37 77.65 C 41.35 77.70 33.69 80.35 26.49 83.67 C 26.51 89.79 26.31 95.95 27.16 102.04 C 27.57 105.35 28.36 108.65 28.10 112.00 C 27.72 113.25 26.44 113.77 25.49 114.49 C 20.42 117.75 16.48 122.38 12.62 126.94 C 15.29 133.14 18.41 139.14 22.33 144.64 C 24.10 146.46 22.26 148.66 21.45 150.44 C 18.70 155.28 16.95 160.57 15.36 165.88 C 19.91 169.79 24.69 173.54 30.29 175.84 C 30.49 176.13 30.89 176.71 31.09 177.00 C 31.38 184.12 30.78 191.26 31.72 198.36 C 38.03 200.35 44.63 200.52 51.16 200.85 C 52.84 202.21 52.66 204.75 53.59 206.58 C 55.70 211.83 58.12 217.05 61.38 221.68 C 68.54 221.78 74.95 217.66 81.26 214.70 C 82.53 214.93 83.83 215.31 84.65 216.38 C 90.64 222.67 97.82 227.66 105.10 232.35 C 112.02 226.70 117.53 219.61 122.12 211.99 L 122.37 211.41 C 134.62 216.02 147.71 218.04 160.71 218.95 C 163.66 208.66 166.44 197.48 163.52 186.89 C 164.54 186.16 165.65 185.51 166.91 185.33 C 183.36 182.60 199.23 177.13 214.51 170.56 C 209.17 157.66 201.55 145.54 191.02 136.25 C 190.96 136.14 190.83 135.91 190.77 135.80 C 207.20 123.93 220.94 108.77 233.39 92.88 C 220.89 87.33 207.69 83.19 194.13 81.30 C 190.41 80.67 186.54 81.00 182.92 79.84 C 182.44 77.02 184.25 74.51 185.07 71.93 C 190.27 57.95 192.70 43.06 193.58 28.22 C 178.68 31.86 163.95 36.51 150.02 43.01 C 146.41 44.61 143.13 46.98 139.28 47.99 C 136.21 35.75 130.69 24.06 122.32 14.53 C 109.78 25.69 98.22 37.94 88.27 51.47 Z" />
	<path d=" M 80.99 125.52 C 81.50 118.85 83.17 112.21 86.28 106.26 C 88.91 111.88 89.90 118.06 90.21 124.21 C 94.11 118.08 99.12 112.72 104.74 108.15 C 103.80 115.21 101.72 122.13 98.33 128.42 C 104.58 124.72 111.44 122.06 118.62 120.90 C 114.38 126.97 109.07 132.27 102.93 136.43 C 109.30 136.62 115.74 137.53 121.69 139.86 C 121.76 140.04 121.89 140.40 121.95 140.59 C 115.77 143.77 108.96 145.53 102.11 146.48 C 107.58 149.63 112.10 154.24 115.55 159.50 C 109.12 158.96 102.73 157.58 96.90 154.75 C 99.27 160.16 100.65 166.02 100.73 171.94 C 96.00 168.56 91.80 164.39 88.67 159.47 C 87.97 165.07 86.28 170.49 83.68 175.49 C 81.13 170.51 80.03 164.94 79.99 159.38 C 76.87 163.74 73.15 167.71 68.62 170.63 C 68.97 165.25 70.56 160.05 72.75 155.14 C 68.37 157.65 63.49 159.10 58.48 159.63 C 61.09 155.07 64.71 151.18 68.85 147.99 C 63.99 147.73 59.18 146.66 54.82 144.46 C 59.11 141.82 63.86 140.02 68.81 139.07 C 64.67 136.12 61.08 132.45 58.30 128.20 C 63.44 127.99 68.60 128.83 73.28 131.01 C 70.85 125.66 69.54 119.83 69.36 113.96 C 74.04 116.91 78.02 120.86 80.99 125.52 Z" />
</g>
<g fill="#7fcdf2">
	<path d=" M 88.27 51.47 C 98.22 37.94 109.78 25.69 122.32 14.53 C 130.69 24.06 136.21 35.75 139.28 47.99 C 143.13 46.98 146.41 44.61 150.02 43.01 C 163.95 36.51 178.68 31.86 193.58 28.22 C 192.70 43.06 190.27 57.95 185.07 71.93 C 184.25 74.51 182.44 77.02 182.92 79.84 C 186.54 81.00 190.41 80.67 194.13 81.30 C 207.69 83.19 220.89 87.33 233.39 92.88 C 220.94 108.77 207.20 123.93 190.77 135.80 C 179.91 126.50 165.53 122.98 151.84 120.21 C 162.12 110.27 171.78 99.45 178.90 86.98 C 180.11 84.88 181.23 82.65 181.73 80.27 C 176.67 79.41 171.55 80.30 166.52 80.96 C 155.54 82.78 144.90 86.21 134.54 90.21 C 138.58 77.09 141.62 63.24 139.88 49.46 C 139.65 49.32 139.20 49.02 138.97 48.87 C 137.23 49.27 135.64 50.14 134.14 51.09 C 122.53 58.67 112.64 68.53 103.44 78.81 C 100.96 70.58 98.14 62.17 92.66 55.40 C 91.35 53.99 90.04 52.17 88.01 51.88 C 87.78 52.05 87.30 52.38 87.07 52.55 C 80.26 63.12 75.69 74.98 72.25 87.03 C 65.77 82.02 58.36 77.71 49.99 77.16 C 52.18 64.69 57.04 52.88 62.08 41.32 C 71.48 42.55 80.60 45.83 88.27 51.47 Z" />
	<path d=" M 26.49 83.67 C 33.69 80.35 41.35 77.70 49.37 77.65 C 47.56 87.54 48.31 97.69 50.08 107.53 C 43.12 107.42 35.99 108.03 29.54 110.81 C 29.38 111.11 29.07 111.72 28.91 112.02 C 29.79 119.96 34.95 126.51 39.50 132.77 C 33.61 136.34 27.14 139.94 23.67 146.16 C 27.22 152.20 34.26 154.65 40.23 157.57 C 36.69 163.44 31.59 169.60 32.19 176.78 C 37.88 180.03 44.73 178.50 50.93 178.25 C 50.07 185.30 49.57 192.48 50.68 199.52 C 51.01 199.68 51.68 199.98 52.01 200.13 C 59.04 200.19 64.83 195.49 70.40 191.78 C 73.21 199.62 76.04 208.11 82.01 214.10 C 89.26 209.97 92.94 201.81 96.56 194.63 C 103.96 201.88 112.47 208.09 122.12 211.99 C 117.53 219.61 112.02 226.70 105.10 232.35 C 97.82 227.66 90.64 222.67 84.65 216.38 C 83.83 215.31 82.53 214.93 81.26 214.70 C 74.95 217.66 68.54 221.78 61.38 221.68 C 58.12 217.05 55.70 211.83 53.59 206.58 C 52.66 204.75 52.84 202.21 51.16 200.85 C 44.63 200.52 38.03 200.35 31.72 198.36 C 30.78 191.26 31.38 184.12 31.09 177.00 C 30.89 176.71 30.49 176.13 30.29 175.84 C 24.69 173.54 19.91 169.79 15.36 165.88 C 16.95 160.57 18.70 155.28 21.45 150.44 C 22.26 148.66 24.10 146.46 22.33 144.64 C 18.41 139.14 15.29 133.14 12.62 126.94 C 16.48 122.38 20.42 117.75 25.49 114.49 C 26.44 113.77 27.72 113.25 28.10 112.00 C 28.36 108.65 27.57 105.35 27.16 102.04 C 26.31 95.95 26.51 89.79 26.49 83.67 Z" />
	<path d=" M 147.03 156.05 C 162.57 151.80 177.95 145.85 191.02 136.25 C 201.55 145.54 209.17 157.66 214.51 170.56 C 199.23 177.13 183.36 182.60 166.91 185.33 C 165.65 185.51 164.54 186.16 163.52 186.89 C 166.44 197.48 163.66 208.66 160.71 218.95 C 147.71 218.04 134.62 216.02 122.37 211.41 C 126.55 202.59 125.91 192.58 125.03 183.13 C 137.21 186.16 149.84 187.65 162.38 186.43 C 163.03 185.72 163.68 185.01 164.34 184.30 C 161.39 173.43 154.59 164.19 147.03 156.05 Z" />
</g>
<path fill="#0093d7" d=" M 134.14 51.09 C 135.64 50.14 137.23 49.27 138.97 48.87 C 139.20 49.02 139.65 49.32 139.88 49.46 C 141.62 63.24 138.58 77.09 134.54 90.21 C 144.90 86.21 155.54 82.78 166.52 80.96 C 171.55 80.30 176.67 79.41 181.73 80.27 C 181.23 82.65 180.11 84.88 178.90 86.98 C 171.78 99.45 162.12 110.27 151.84 120.21 C 165.53 122.98 179.91 126.50 190.77 135.80 C 190.83 135.91 190.96 136.14 191.02 136.25 C 177.95 145.85 162.57 151.80 147.03 156.05 C 154.59 164.19 161.39 173.43 164.34 184.30 C 163.68 185.01 163.03 185.72 162.38 186.43 C 149.84 187.65 137.21 186.16 125.03 183.13 C 125.91 192.58 126.55 202.59 122.37 211.41 L 122.12 211.99 C 112.47 208.09 103.96 201.88 96.56 194.63 C 92.94 201.81 89.26 209.97 82.01 214.10 C 76.04 208.11 73.21 199.62 70.40 191.78 C 64.83 195.49 59.04 200.19 52.01 200.13 C 51.68 199.98 51.01 199.68 50.68 199.52 C 49.57 192.48 50.07 185.30 50.93 178.25 C 44.73 178.50 37.88 180.03 32.19 176.78 C 31.59 169.60 36.69 163.44 40.23 157.57 C 34.26 154.65 27.22 152.20 23.67 146.16 C 27.14 139.94 33.61 136.34 39.50 132.77 C 34.95 126.51 29.79 119.96 28.91 112.02 C 29.07 111.72 29.38 111.11 29.54 110.81 C 35.99 108.03 43.12 107.42 50.08 107.53 C 48.31 97.69 47.56 87.54 49.37 77.65 L 49.46 77.08 L 49.99 77.16 C 58.36 77.71 65.77 82.02 72.25 87.03 C 75.69 74.98 80.26 63.12 87.07 52.55 C 87.30 52.38 87.78 52.05 88.01 51.88 C 90.04 52.17 91.35 53.99 92.66 55.40 C 98.14 62.17 100.96 70.58 103.44 78.81 C 112.64 68.53 122.53 58.67 134.14 51.09 M 86.26 105.14 C 82.70 98.47 78.23 92.27 72.48 87.32 C 69.64 95.65 69.32 104.52 68.87 113.23 C 63.04 110.31 56.80 108.24 50.29 107.57 C 51.45 114.75 54.28 121.49 57.77 127.82 C 51.56 128.50 45.46 130.05 39.75 132.62 C 43.44 137.69 48.70 141.19 53.87 144.58 C 48.86 148.22 44.19 152.35 40.45 157.31 C 45.95 159.58 51.96 159.83 57.84 159.91 C 54.82 165.62 52.33 171.63 51.13 178.01 C 57.17 177.01 62.75 174.41 68.11 171.54 C 68.11 178.22 68.61 184.93 70.34 191.41 C 75.95 187.66 79.61 181.92 83.62 176.65 C 87.24 183.03 91.05 189.47 96.64 194.34 C 99.35 187.43 100.68 180.07 100.96 172.66 C 108.28 176.92 115.92 180.92 124.25 182.73 C 124.34 181.80 124.52 180.85 124.26 179.93 C 122.83 172.76 119.79 166.03 116.11 159.75 C 126.39 159.82 136.75 158.93 146.67 156.04 C 140.24 149.19 132.15 144.23 123.71 140.24 C 133.65 134.67 143.44 128.47 151.37 120.21 C 140.92 118.59 130.28 118.98 119.80 120.04 C 125.82 110.89 131.14 101.16 134.23 90.60 C 123.73 94.48 114.20 100.52 105.24 107.15 C 106.01 97.82 105.86 88.30 103.34 79.22 C 96.45 87.00 90.83 95.83 86.26 105.14 Z" />
<path fill="#006cb9" d=" M 86.26 105.14 C 90.83 95.83 96.45 87.00 103.34 79.22 C 105.86 88.30 106.01 97.82 105.24 107.15 C 114.20 100.52 123.73 94.48 134.23 90.60 C 131.14 101.16 125.82 110.89 119.80 120.04 C 130.28 118.98 140.92 118.59 151.37 120.21 C 143.44 128.47 133.65 134.67 123.71 140.24 C 132.15 144.23 140.24 149.19 146.67 156.04 C 136.75 158.93 126.39 159.82 116.11 159.75 C 119.79 166.03 122.83 172.76 124.26 179.93 C 124.52 180.85 124.34 181.80 124.25 182.73 C 115.92 180.92 108.28 176.92 100.96 172.66 C 100.68 180.07 99.35 187.43 96.64 194.34 C 91.05 189.47 87.24 183.03 83.62 176.65 C 79.61 181.92 75.95 187.66 70.34 191.41 C 68.61 184.93 68.11 178.22 68.11 171.54 C 62.75 174.41 57.17 177.01 51.13 178.01 C 52.33 171.63 54.82 165.62 57.84 159.91 C 51.96 159.83 45.95 159.58 40.45 157.31 C 44.19 152.35 48.86 148.22 53.87 144.58 C 48.70 141.19 43.44 137.69 39.75 132.62 C 45.46 130.05 51.56 128.50 57.77 127.82 C 54.28 121.49 51.45 114.75 50.29 107.57 C 56.80 108.24 63.04 110.31 68.87 113.23 C 69.32 104.52 69.64 95.65 72.48 87.32 C 78.23 92.27 82.70 98.47 86.26 105.14 M 80.99 125.52 C 78.02 120.86 74.04 116.91 69.36 113.96 C 69.54 119.83 70.85 125.66 73.28 131.01 C 68.60 128.83 63.44 127.99 58.30 128.20 C 61.08 132.45 64.67 136.12 68.81 139.07 C 63.86 140.02 59.11 141.82 54.82 144.46 C 59.18 146.66 63.99 147.73 68.85 147.99 C 64.71 151.18 61.09 155.07 58.48 159.63 C 63.49 159.10 68.37 157.65 72.75 155.14 C 70.56 160.05 68.97 165.25 68.62 170.63 C 73.15 167.71 76.87 163.74 79.99 159.38 C 80.03 164.94 81.13 170.51 83.68 175.49 C 86.28 170.49 87.97 165.07 88.67 159.47 C 91.80 164.39 96.00 168.56 100.73 171.94 C 100.65 166.02 99.27 160.16 96.90 154.75 C 102.73 157.58 109.12 158.96 115.55 159.50 C 112.10 154.24 107.58 149.63 102.11 146.48 C 108.96 145.53 115.77 143.77 121.95 140.59 C 121.89 140.40 121.76 140.04 121.69 139.86 C 115.74 137.53 109.30 136.62 102.93 136.43 C 109.07 132.27 114.38 126.97 118.62 120.90 C 111.44 122.06 104.58 124.72 98.33 128.42 C 101.72 122.13 103.80 115.21 104.74 108.15 C 99.12 112.72 94.11 118.08 90.21 124.21 C 89.90 118.06 88.91 111.88 86.28 106.26 C 83.17 112.21 81.50 118.85 80.99 125.52 Z" />
</svg>